PathFileType	4	(X/Y/Z)	path1_18_0-549.trc
DataRate	CameraRate	NumFrames	NumMarkers	Units	OrigDataRate	OrigDataStartFrame	OrigNumFrames
30	30	7	22	m	30	480	549
Frame#	Time	Hip			RHip			RKnee			RAnkle			RBigToe			RSmallToe			RHeel			LHip			LKnee			LAnkle			LBigToe			LSmallToe			LHeel			Neck			Head			Nose			RShoulder			RElbow			RWrist			LShoulder			LElbow			LWrist		
		X1	Y1	Z1	X2	Y2	Z2	X3	Y3	Z3	X4	Y4	Z4	X5	Y5	Z5	X6	Y6	Z6	X7	Y7	Z7	X8	Y8	Z8	X9	Y9	Z9	X10	Y10	Z10	X11	Y11	Z11	X12	Y12	Z12	X13	Y13	Z13	X14	Y14	Z14	X15	Y15	Z15	X16	Y16	Z16	X17	Y17	Z17	X18	Y18	Z18	X19	Y19	Z19	X20	Y20	Z20	X21	Y21	Z21	X22	Y22	Z22
481	16.033333333333335	-1.828439075972165	0.8088132250243368	0.7436729175677872	-1.8285837173024864	0.7770852221446274	0.6520037488468738	-1.827892311769079	0.4326323382641847	0.6783828081092687	-1.8054186789371633	0.0647557532683863	0.7144646602209661	-2.0012044117062047	-0.020411670022814386	0.705967669866364	-1.9558123441345372	-0.04348679271703138	0.6807162508876733	-1.7598192783458921	0.002717757427811713	0.7243259287897504	-1.8322587473178447	0.7750459480816313	0.8328258676559808	-1.8961053114025845	0.43985593366699177	0.8697234506722225	-1.6959908057129205	0.20974243416600147	0.8329624117000509	-1.8172606345839395	-0.0009900154072403184	0.8497250864349202	-1.7619892822784295	0.028654606014195345	0.8889396184605927	-1.6219676728751677	0.1865803280912121	0.8151292204708399	-1.8194082315705318	1.4471823083874678	0.7399235132092105	-1.9279857966134901	1.681280008344424	0.5860709655337241	-2.00252019568513	1.528156993140664	0.6796091447417273	-1.755188496023121	1.3353902648351617	0.5811077790515846	-1.752897768741024	1.0592477478234184	0.5225530490448717	-1.8279826550018299	0.8116317363347183	0.5044969643021446	-1.7983756944925715	1.3366165445590683	0.9259379334867888	-1.7969825090485305	1.0463899145876034	0.9688139677147881	-1.8866463179459771	0.8174783629006193	0.998334533600318
482	16.066666666666666	-1.8582251320247254	0.8103483622862715	0.7417936575242292	-1.8526428578152685	0.7757259097637416	0.6508883969819717	-1.8364217860188063	0.4354244939758917	0.6798326403139786	-1.80522067589001	0.06791200114550854	0.7149714534195218	-1.9960550587318961	-0.01906794367494918	0.7030663388487883	-1.949125824152045	-0.04008902403690962	0.6760333401487743	-1.7563289182691268	0.004631020503965984	0.7259395618670613	-1.8631754197784485	0.7749783252774515	0.8341234797832184	-1.941773843475796	0.4402927941251069	0.8768122045872518	-1.7713325759035354	0.18719591966036736	0.8383499140643511	-1.9522155000865418	-0.00987936341070106	0.8510787578376957	-1.8921019377024995	0.013339843114032315	0.8887908747272154	-1.7116408409039152	0.15430135428370542	0.8198405658900938	-1.841064942531849	1.4470397453566428	0.7454330149882005	-1.9552650335137833	1.6806234152451	0.5838370039009402	-2.0234521153171188	1.5230483977124138	0.6571116670259773	-1.7838509993303309	1.3376340467736523	0.5826499233194179	-1.7955810047556993	1.0592216007356552	0.5191271839168997	-1.8839535351566923	0.8149411791962236	0.5026940735317944	-1.819679853508913	1.3381633678380727	0.9256706355431732	-1.8141936590119225	1.0488977304888047	0.969488109330573	-1.889158143508332	0.8170103239630867	1.0065880541816907
483	16.1	-1.886306975220053	0.8108271439583157	0.7412027834084084	-1.8760921048591856	0.7742799491585013	0.6503098063482708	-1.8465330709357985	0.4372465849440855	0.6808161970187057	-1.8054320664018284	0.07084784292726835	0.7155296296327446	-1.9914059879544606	-0.017134868417515627	0.6996746681163084	-1.9449853703269182	-0.03491577191243258	0.6695677509248444	-1.7549156895218931	0.00661221062734933	0.7287994778173591	-1.891611471447788	0.7746903298059745	0.8359309378560071	-1.9794220451516238	0.4400537063763074	0.8812168745151711	-1.8523982171293232	0.16046788742100274	0.8440511494691422	-2.082510680071172	-0.01820376883778156	0.8532874153272985	-2.021781640619869	-0.0035930329121108837	0.889298703909083	-1.8054124893859784	0.11887276083361606	0.8241259036485553	-1.8640914666274728	1.4456713917032409	0.7496965659171891	-1.9828358851551926	1.6795304883800095	0.5865528637994493	-2.049235568854924	1.5202036371933145	0.6478060147712454	-1.8135053136103247	1.3393492309988058	0.5837981020550689	-1.8369026375920672	1.058768133280761	0.5166178776944023	-1.939040743203684	0.8184653999258792	0.5016317809777635	-1.8394168909942474	1.337675993495342	0.9276086026818391	-1.8319110681360338	1.053018412019131	0.9725860099284338	-1.8924925089569964	0.8178629375525459	1.01250340555366
484	16.133333333333333	-1.9129332489675082	0.8099728360535593	0.7417873237603112	-1.899671050589742	0.7725959444105517	0.6505270146732368	-1.8580773329645732	0.43777508296452705	0.6815904409139127	-1.8059454410492095	0.07301918656855043	0.7161570733890158	-1.988056134909849	-0.014826083581911616	0.6962893241956857	-1.9427690040798054	-0.02888625828606476	0.6626775072106599	-1.7546171651589673	0.00867684413841881	0.7319785053615401	-1.9179209200191798	0.7738580840555345	0.8378368480198743	-2.0102745161026427	0.43887660388057675	0.8833723152718944	-1.9363676566592227	0.13424324182526223	0.8497268809307484	-2.1970508975145098	-0.02191720505855606	0.8574758320971345	-2.1396892771426295	-0.01606663705027741	0.8917858001425347	-1.9003487352989816	0.08603027433490189	0.8278637610633796	-1.8888341845311698	1.4433076264802245	0.7526882732203103	-2.0107257902898796	1.6778523155016165	0.5920267358227661	-2.081025064609972	1.520015943631893	0.6554458049175721	-1.8436205052524233	1.3400139848071397	0.584970663985229	-1.8764826802544379	1.0579387622327991	0.515081839391584	-1.992064430369421	0.8221853228735939	0.5017534811635382	-1.858901869727097	1.3353308665943944	0.9311032560895385	-1.8501267432755175	1.0573758082718616	0.9766238593601715	-1.8966363222646563	0.8187896237714021	1.0158518660789522
485	16.166666666666668	-1.9385539336369049	0.8079088975429961	0.7431139792560203	-1.9238317823084532	0.7705064457794585	0.6515710890705584	-1.870898786234068	0.43693341515084694	0.6823618105462497	-1.806574955781594	0.07437047465073095	0.7168092930655937	-1.9863681132782718	-0.01236766174223645	0.6935067603044087	-1.9418002894537412	-0.02247506110649339	0.656175890517185	-1.7545081059333023	0.0108725839844125	0.7346763640274112	-1.942747519415298	0.7721702470822087	0.8395299220290612	-2.0362819697050183	0.4366186771422668	0.8841271446486362	-2.018626544155219	0.11219145264182266	0.8550318541872326	-2.2881230942828896	-0.018082309832308355	0.8637571769167944	-2.2360770608890874	-0.01920271513741812	0.8970058356999057	-1.9916161320422294	0.059719861716992555	0.8313374466766253	-1.9147395474038122	1.440191573865253	0.7551058699246285	-2.039005091430032	1.675714732674689	0.5983102731022181	-2.1178086560897182	1.5218879822902394	0.6787591461891701	-1.8736087389749598	1.3394304505761052	0.5863822342282722	-1.9138767397439103	1.0567204363099334	0.5145906785684815	-2.0418910117020483	0.8260193558848065	0.503488256889364	-1.8795084023419892	1.33154195535431	0.9354853119477302	-1.8685834355442186	1.0605686674099675	0.9802465925890772	-1.9019175461933713	0.8188313813849937	1.0167589933427374
486	16.2	-1.9635426638523545	0.8051818251220736	0.7447751708069555	-1.9485955070648446	0.7681492571356828	0.6533014811947083	-1.8850318015972063	0.4349603661325466	0.6832159223207227	-1.8072690639932976	0.07524983795636803	0.71736339524491	-1.9862355113030505	-0.00998962752270504	0.691402559877267	-1.9416192633623393	-0.01620535552311214	0.6504868187863617	-1.754180343345062	0.013214178714320561	0.7363884487492608	-1.9668485821413062	0.7696930225901812	0.8409199529887432	-2.059386051536168	0.4333771386234141	0.8843126038383944	-2.0940135895834278	0.09597314884557587	0.8594653860846821	-2.3533159685456133	-0.006871096946219396	0.8709158953808751	-2.306830372647114	-0.012490926323349095	0.9042255587652326	-2.0738543059691548	0.041060487909542316	0.8346276087538054	-1.9411071198078909	1.4366279262200958	0.7577292699573255	-2.0682525598504387	1.6734919253959626	0.6048017392743503	-2.156810279681956	1.524356912551032	0.710888576308523	-1.9030131981000866	1.3376923445493643	0.5881181121445973	-1.9487521691488467	1.0550053607357666	0.5152464093873725	-2.087872405405382	0.8296723600195067	0.5071569793671918	-1.9022325191784957	1.3268353193509843	0.940355778639773	-1.8872142881633667	1.0618661316003342	0.9828232562399519	-1.9091180412912756	0.8176406833332823	1.0157209744903333
487	16.233333333333334	-1.9881300736728553	0.8023973521050699	0.7466193297972579	-1.9737334327165286	0.7658611229051822	0.6555810462309514	-1.9007609719967749	0.4323848680281675	0.6841676130172913	-1.8081928029901653	0.07625836203052577	0.7177200575193519	-1.98732804116895	-0.008033582581888646	0.6897751618381692	-1.9419695600362925	-0.010881474084973938	0.6461611891674276	-1.7537492982623744	0.015834570442839997	0.73696362817997	-1.9908818616664756	0.7668228928872767	0.8420544963169978	-2.0812016380027947	0.4293215333046602	0.8844625761416705	-2.1582820858422704	0.08512945894019266	0.8623244557433787	-2.3963621392770365	0.0077162788962940355	0.8769045590405053	-2.354705837599453	-0.000378349689710285	0.9112317852867254	-2.1427729912651903	0.028718653933383766	0.8371082735155564	-1.9676257437564741	1.4329163953506647	0.7610375824871833	-2.099620616115883	1.6716190104873083	0.6133437720327152	-2.1948317167493956	1.5257735198819706	0.7424114758447348	-1.9317208263327093	1.3350464531954456	0.590276937437373	-1.9810442295855326	1.0526855829396218	0.5171669926256552	-2.129857924318642	0.8326037318174992	0.5128745063104643	-1.9273870180014114	1.3216684232125824	0.945627891198842	-1.9062275567497526	1.0611754235658117	0.9843150962388418	-1.9191863610385085	0.8153000612790653	1.0134343071661007
